<?xml version="1.0" standalone="no"?>
<!DOCTYPE svg PUBLIC "-//W3C//DTD SVG 20010904//EN"
 "http://www.w3.org/TR/2001/REC-SVG-20010904/DTD/svg10.dtd">
<svg version="1.0" xmlns="http://www.w3.org/2000/svg"
 width="512.000000pt" height="512.000000pt" viewBox="0 0 512.000000 512.000000"
 preserveAspectRatio="xMidYMid meet">
<metadata>
Created by potrace 1.11, written by Peter Selinger 2001-2013
</metadata>
<g transform="translate(0.000000,512.000000) scale(0.100000,-0.100000)"
fill="#000000" stroke="none">
<path d="M2378 5115 c-2 -1 -34 -5 -73 -9 -38 -3 -97 -10 -130 -16 -33 -6 -76
-13 -95 -16 -106 -17 -413 -105 -434 -125 -6 -5 -16 -9 -23 -9 -14 0 -93 -35
-223 -100 -260 -129 -523 -328 -725 -551 -87 -96 -109 -122 -179 -216 l-68
-93 -133 0 -133 0 0 -262 c0 -219 -3 -271 -17 -308 -35 -96 -81 -267 -100
-375 -31 -174 -38 -259 -39 -445 -1 -228 4 -304 33 -465 22 -129 51 -243 93
-375 l31 -95 -1 -260 0 -261 135 1 134 1 50 -68 c402 -553 991 -920 1654
-1032 41 -7 105 -15 195 -25 73 -8 460 -6 510 3 14 2 48 7 75 11 202 27 490
107 655 182 440 198 800 488 1068 858 l51 71 135 -1 c75 0 136 2 136 4 0 3
-34 49 -75 103 l-76 99 34 62 c116 217 220 549 252 807 3 25 9 77 14 115 8 70
7 472 -2 510 -3 11 -8 45 -11 75 -34 267 -140 596 -271 841 -61 113 -61 104
-5 163 28 29 50 56 50 59 0 4 -39 7 -88 7 -97 0 -88 -5 -156 90 -107 150 -312
366 -446 470 -24 19 -53 43 -65 53 -47 42 -253 172 -367 233 -219 115 -510
217 -708 248 -19 3 -46 8 -60 11 -14 3 -52 8 -85 11 -33 4 -64 9 -69 12 -9 5
-442 12 -448 7z"/>
</g>
</svg>
